<svg xmlns="http://www.w3.org/2000/svg" width="313.219" height="120.005" viewBox="0 0 313.219 120.005">
  <defs>
    <style>
      .cls-1 {
        fill-rule: evenodd;
      }
    </style>
  </defs>
  <path id="title_news.svg" class="cls-1" d="M147.607,975.889h-30.67v36.561l-11.92-36.561H80.375v120h30.669v-41.92l14.063,41.92h22.5v-120Zm64.634,95.891H190.009v-28.39h18.08v-23.3H190.276V999.46h21.161V975.889H158.8l-0.134,120h53.572v-24.11Zm76.687-95.891-6.294,31.741-4.42-31.741H262.276l-5.491,33.081-5.491-33.081H222.1l21.83,120h20.759l5.223-35.63,4.822,35.63h21.027l21.964-120h-28.8ZM393.6,1041.11l-19.7-17.68-16.864-2.94V999.46h4.955v15.27h29.866v-21.7l-17.812-17.143H344.581L326.5,993.032v35.888l19.286,17.28,15.8,2.01v23.04h-4.553v-15.81H325.43v23.84l17.812,16.61h32.143l18.214-16.61v-38.17Z" transform="translate(-80.375 -975.875)"/>
</svg>
