<?xml version="1.0" encoding="utf-8"?>
<!-- Generator: Adobe Illustrator 27.3.1, SVG Export Plug-In . SVG Version: 6.00 Build 0)  -->
<svg version="1.1" id="レイヤー_1" xmlns="http://www.w3.org/2000/svg" xmlns:xlink="http://www.w3.org/1999/xlink" x="0px"
	 y="0px" viewBox="0 0 160 968" style="enable-background:new 0 0 160 968;" xml:space="preserve">
<style type="text/css">
	.st0{fill-rule:evenodd;clip-rule:evenodd;fill:#FFFFFF;}
</style>
<path id="top_newworld.svg" class="st0" d="M-0.01,877.61v40.89h48.75l-48.75,15.89v32.86h160v-40.89H104.1l55.89-18.75v-30H-0.01z
	 M127.84,791.43v29.64H89.99v-24.11H58.92v23.75h-27.5V792.5H-0.01v70.18l160,0.18v-71.43H127.84L127.84,791.43z M-0.01,689.18
	l42.32,8.39l-42.32,5.89v21.25l44.11,7.32l-44.11,7.33v38.92l160-29.1V721.5l-47.5-6.97l47.5-6.42v-28.04l-160-29.29L-0.01,689.18
	L-0.01,689.18z M-0.01,495.96l42.32,8.4l-42.32,5.89v21.25l44.11,7.32l-44.11,7.32v38.93l160-29.11v-27.68l-47.5-6.96l47.5-6.43
	v-28.03l-160-29.29L-0.01,495.96L-0.01,495.96z M22.82,354.52l-22.83,25.53v40.36l22.83,25.53h114.51l22.65-25.17v-39.83
	l-22.3-26.42L22.82,354.52L22.82,354.52z M127.13,403.44h-95v-6.07h95V403.44z M96.42,249.96l-16.97,19.65l-15.89-18.75H22.84
	l-22.86,25v64.28h160v-41.96H95.52v-5h64.46v-43.22L96.42,249.96L96.42,249.96z M64.09,298.18H31.42v-5H64.1v5H64.09z
	 M127.84,165.13v28.22H-0.01v42.5l160-0.18v-70.54H127.84z M22.99,60.18l-23,22.32v68.93h160V86.25L137.85,60L22.99,60.18z
	 M127.84,109.11H31.59v-5.36h96.25V109.11z"/>
</svg>
