<svg xmlns="http://www.w3.org/2000/svg" width="548.969" height="120" viewBox="0 0 548.969 120">
  <defs>
    <style>
      .cls-1 {
        fill-rule: evenodd;
      }
    </style>
  </defs>
  <path id="title_episodes.svg" class="cls-1" d="M134.08,1919.78H111.848v-28.39h18.08v-23.3H112.116v-20.63h21.16v-23.57H80.643l-0.134,120H134.08v-24.11Zm75.249-79.28-18.215-16.61H144.239l-0.134,120h26.116v-39.91h19.554l19.554-17.28v-46.2Zm-33.349,39.37V1848h3.349v31.87H175.98Zm75.884-55.98H219.855v120h32.009v-120Zm78.063,65.22-19.7-17.68-16.865-2.94v-21.03h4.955v15.27h29.866v-21.7l-17.812-17.14H280.91l-18.081,17.14v35.89l19.286,17.28,15.8,2.01v23.04h-4.554v-15.81H261.758v23.84l17.812,16.61h32.143l18.214-16.61v-38.17Zm78.909-48.1-19.152-17.12H359.416l-19.151,17.12v85.89l18.884,16.99h29.866l19.821-16.72v-86.16Zm-36.7,78.24V1848h4.553v71.25H372.14ZM487.8,1841.14l-16.742-17.25h-51.7v120H468.25l19.687-16.61Zm-36.7,78.64v-72.19h4.018v72.19h-4.018Zm100.444,0H529.319v-28.39H547.4v-23.3H529.587v-20.63h21.161v-23.57H498.114l-0.134,120h53.571v-24.11Zm77.931-30.67-19.7-17.68-16.865-2.94v-21.03h4.956v15.27h29.866v-21.7l-17.813-17.14H580.464l-18.08,17.14v35.89l19.285,17.28,15.8,2.01v23.04h-4.554v-15.81H561.312v23.84l17.813,16.61h32.143l18.214-16.61v-38.17Z" transform="translate(-80.5 -1823.88)"/>
</svg>
